{
  "source": "C:\\Users\\Peter\\Desktop\\stuff\\MIUN\\quantitative_research\\video_compression\\videos\\BVI-HD\\BVI-HD_CDVL_videos\\ORIG\\CalmingWater_1920x1080_60fps.mp4",
  "output": "C:\\Users\\Peter\\Desktop\\stuff\\MIUN\\quantitative_research\\video_compression\\compressed_videos\\BVI-HD\\vp9\\1\\CalmingWater_1920x1080_60fps_vp9.webm",
  "codec": "vp9",
  "ok": "Input #0, mov,mp4,m4a,3gp,3g2,mj2, from 'C:\\Users\\Peter\\Desktop\\stuff\\MIUN\\quantitative_research\\video_compression\\videos\\BVI-HD\\BVI-HD_CDVL_videos\\ORIG\\CalmingWater_1920x1080_60fps.mp4':\n  Metadata:\n    major_brand     : isom\n    minor_version   : 512\n    compatible_brands: isomiso2avc1mp41\n    encoder         : Lavf54.28.101\n  Duration: 00:00:05.00, start: 0.000000, bitrate: 623787 kb/s\n  Stream #0:0[0x1](und): Video: h264 (High 4:4:4 Predictive) (avc1 / 0x31637661), yuv420p(progressive), 1920x1080, 623782 kb/s, 60 fps, 60 tbr, 60 tbn (default)\n    Metadata:\n      handler_name    : VideoHandler\n      vendor_id       : [0][0][0][0]\n[out#0/webm @ 0000015c770b9040] Codec AVOption b:a (set bitrate (in bits/s)) has not been used for any stream. The most likely reason is either wrong type (e.g. a video option with no video streams) or that it is a private option of some decoder which was not actually used for any stream.\nStream mapping:\n  Stream #0:0 -> #0:0 (h264 (native) -> vp9 (libvpx-vp9))\nPress [q] to stop, [?] for help\n[libvpx-vp9 @ 0000015c77ba0640] v1.15.2-100-g40561f514\nOutput #0, webm, to 'C:\\Users\\Peter\\Desktop\\stuff\\MIUN\\quantitative_research\\video_compression\\compressed_videos\\BVI-HD\\vp9\\1\\CalmingWater_1920x1080_60fps_vp9.webm':\n  Metadata:\n    major_brand     : isom\n    minor_version   : 512\n    compatible_brands: isomiso2avc1mp41\n    encoder         : Lavf62.3.100\n  Stream #0:0(und): Video: vp9, yuv420p(tv, progressive), 1920x1080, q=2-31, 1000 kb/s, 60 fps, 1k tbn (default)\n    Metadata:\n      encoder         : Lavc62.11.100 libvpx-vp9\n      handler_name    : VideoHandler\n      vendor_id       : [0][0][0][0]\n    Side data:\n      cpb: bitrate max/min/avg: 0/0/0 buffer size: 1000000 vbv_delay: N/A\nframe=    0 fps=0.0 q=0.0 size=       0KiB time=N/A bitrate=N/A speed=N/A elapsed=0:00:00.52    \nframe=    4 fps=3.2 q=63.0 size=       1KiB time=00:00:00.06 bitrate=  76.0kbits/s speed=0.0531x elapsed=0:00:01.25    \nframe=    8 fps=4.5 q=63.0 size=       1KiB time=00:00:00.13 bitrate=  38.0kbits/s speed=0.0743x elapsed=0:00:01.79    \nframe=   12 fps=5.2 q=63.0 size=       1KiB time=00:00:00.20 bitrate=  25.3kbits/s speed=0.0859x elapsed=0:00:02.32    \nframe=   15 fps=5.2 q=63.0 size=       1KiB time=00:00:00.25 bitrate=  20.3kbits/s speed=0.0871x elapsed=0:00:02.86    \nframe=   19 fps=5.6 q=63.0 size=       1KiB time=00:00:00.31 bitrate=  16.0kbits/s speed=0.0936x elapsed=0:00:03.38    \nframe=   23 fps=5.9 q=63.0 size=       1KiB time=00:00:00.38 bitrate=  13.2kbits/s speed=0.0979x elapsed=0:00:03.91    \nframe=   26 fps=5.8 q=63.0 size=       1KiB time=00:00:00.43 bitrate=  11.7kbits/s speed=0.0973x elapsed=0:00:04.45    \nframe=   30 fps=6.0 q=63.0 size=       1KiB time=00:00:00.50 bitrate=  10.1kbits/s speed= 0.1x elapsed=0:00:04.98    \nframe=   34 fps=6.2 q=63.0 size=       1KiB time=00:00:00.56 bitrate=   8.9kbits/s speed=0.103x elapsed=0:00:05.50    \nframe=   37 fps=6.1 q=56.0 size=       1KiB time=00:00:00.61 bitrate=   8.2kbits/s speed=0.102x elapsed=0:00:06.04    \nframe=   40 fps=6.1 q=63.0 size=       1KiB time=00:00:00.66 bitrate=   7.6kbits/s speed=0.101x elapsed=0:00:06.57    \nframe=   44 fps=6.2 q=63.0 size=       1KiB time=00:00:00.73 bitrate=   6.9kbits/s speed=0.103x elapsed=0:00:07.09    \nframe=   48 fps=6.3 q=63.0 size=       1KiB time=00:00:00.80 bitrate=   6.3kbits/s speed=0.105x elapsed=0:00:07.62    \nframe=   51 fps=6.2 q=63.0 size=       1KiB time=00:00:00.85 bitrate=   6.0kbits/s speed=0.104x elapsed=0:00:08.17    \nframe=   55 fps=6.3 q=63.0 size=       1KiB time=00:00:00.91 bitrate=   5.5kbits/s speed=0.105x elapsed=0:00:08.70    \nframe=   58 fps=6.3 q=56.0 size=       1KiB time=00:00:00.96 bitrate=   5.2kbits/s speed=0.105x elapsed=0:00:09.24    \nframe=   62 fps=6.3 q=63.0 size=       1KiB time=00:00:01.03 bitrate=   4.9kbits/s speed=0.106x elapsed=0:00:09.79    \nframe=   65 fps=6.3 q=63.0 size=       1KiB time=00:00:01.08 bitrate=   4.7kbits/s speed=0.105x elapsed=0:00:10.31    \nframe=   69 fps=6.4 q=63.0 size=       1KiB time=00:00:01.15 bitrate=   4.4kbits/s speed=0.106x elapsed=0:00:10.82    \nframe=   72 fps=6.3 q=63.0 size=       1KiB time=00:00:01.20 bitrate=   4.2kbits/s speed=0.106x elapsed=0:00:11.35    \nframe=   76 fps=6.4 q=63.0 size=       1KiB time=00:00:01.26 bitrate=   4.0kbits/s speed=0.106x elapsed=0:00:11.90    \nframe=   79 fps=6.4 q=56.0 size=       1KiB time=00:00:01.31 bitrate=   3.8kbits/s speed=0.106x elapsed=0:00:12.44    \nframe=   83 fps=6.4 q=63.0 size=       1KiB time=00:00:01.38 bitrate=   3.7kbits/s speed=0.107x elapsed=0:00:12.96    \nframe=   87 fps=6.4 q=63.0 size=       1KiB time=00:00:01.45 bitrate=   3.5kbits/s speed=0.107x elapsed=0:00:13.51    \nframe=   90 fps=6.4 q=63.0 size=       1KiB time=00:00:01.50 bitrate=   3.4kbits/s speed=0.107x elapsed=0:00:14.04    \nframe=   93 fps=6.4 q=63.0 size=       1KiB time=00:00:01.55 bitrate=   3.3kbits/s speed=0.106x elapsed=0:00:14.56    \nframe=   97 fps=6.4 q=63.0 size=       1KiB time=00:00:01.61 bitrate=   3.1kbits/s speed=0.107x elapsed=0:00:15.09    \nframe=  100 fps=6.4 q=56.0 size=       1KiB time=00:00:01.66 bitrate=   3.0kbits/s speed=0.107x elapsed=0:00:15.61    \nframe=  104 fps=6.4 q=63.0 size=       1KiB time=00:00:01.73 bitrate=   2.9kbits/s speed=0.107x elapsed=0:00:16.14    \nframe=  108 fps=6.5 q=63.0 size=       1KiB time=00:00:01.80 bitrate=   2.8kbits/s speed=0.108x elapsed=0:00:16.69    \nframe=  112 fps=6.5 q=63.0 size=       1KiB time=00:00:01.86 bitrate=   2.7kbits/s speed=0.108x elapsed=0:00:17.21    \nframe=  115 fps=6.5 q=56.0 size=       1KiB time=00:00:01.91 bitrate=   2.6kbits/s speed=0.108x elapsed=0:00:17.75    \nframe=  119 fps=6.5 q=63.0 size=       1KiB time=00:00:01.98 bitrate=   2.6kbits/s speed=0.108x elapsed=0:00:18.28    \nframe=  122 fps=6.5 q=63.0 size=       1KiB time=00:00:02.03 bitrate=   2.5kbits/s speed=0.108x elapsed=0:00:18.81    \nframe=  126 fps=6.5 q=63.0 size=       1KiB time=00:00:02.10 bitrate=   2.4kbits/s speed=0.109x elapsed=0:00:19.33    \nframe=  129 fps=6.5 q=56.0 size=       1KiB time=00:00:02.15 bitrate=   2.4kbits/s speed=0.108x elapsed=0:00:19.85    \nframe=  134 fps=6.6 q=63.0 size=     768KiB time=00:00:02.23 bitrate=2817.1kbits/s speed=0.11x elapsed=0:00:20.37    \nframe=  137 fps=6.6 q=63.0 size=     768KiB time=00:00:02.28 bitrate=2755.4kbits/s speed=0.109x elapsed=0:00:20.91    \nframe=  141 fps=6.6 q=63.0 size=     768KiB time=00:00:02.35 bitrate=2677.2kbits/s speed=0.11x elapsed=0:00:21.42    \nframe=  145 fps=6.6 q=63.0 size=     768KiB time=00:00:02.41 bitrate=2603.4kbits/s speed=0.11x elapsed=0:00:21.94    \nframe=  149 fps=6.6 q=63.0 size=     768KiB time=00:00:02.48 bitrate=2533.5kbits/s speed=0.111x elapsed=0:00:22.45    \nframe=  152 fps=6.6 q=63.0 size=     768KiB time=00:00:02.53 bitrate=2483.5kbits/s speed=0.11x elapsed=0:00:22.98    \nframe=  155 fps=6.6 q=63.0 size=     768KiB time=00:00:02.58 bitrate=2435.4kbits/s speed=0.11x elapsed=0:00:23.51    \nframe=  159 fps=6.6 q=63.0 size=     768KiB time=00:00:02.65 bitrate=2374.1kbits/s speed=0.11x elapsed=0:00:24.04    \nframe=  162 fps=6.6 q=56.0 size=     768KiB time=00:00:02.70 bitrate=2330.2kbits/s speed=0.11x elapsed=0:00:24.58    \nframe=  166 fps=6.6 q=63.0 size=     768KiB time=00:00:02.76 bitrate=2274.0kbits/s speed=0.11x elapsed=0:00:25.09    \nframe=  169 fps=6.6 q=63.0 size=     768KiB time=00:00:02.81 bitrate=2233.7kbits/s speed=0.11x elapsed=0:00:25.62    \nframe=  173 fps=6.6 q=63.0 size=     768KiB time=00:00:02.88 bitrate=2182.0kbits/s speed=0.11x elapsed=0:00:26.14    \nframe=  177 fps=6.6 q=63.0 size=     768KiB time=00:00:02.95 bitrate=2132.7kbits/s speed=0.111x elapsed=0:00:26.68    \nframe=  181 fps=6.7 q=63.0 size=     768KiB time=00:00:03.01 bitrate=2085.6kbits/s speed=0.111x elapsed=0:00:27.21    \nframe=  184 fps=6.6 q=63.0 size=     768KiB time=00:00:03.06 bitrate=2051.6kbits/s speed=0.11x elapsed=0:00:27.79    \nframe=  188 fps=6.6 q=63.0 size=     768KiB time=00:00:03.13 bitrate=2007.9kbits/s speed=0.111x elapsed=0:00:28.30    \nframe=  192 fps=6.7 q=63.0 size=     768KiB time=00:00:03.20 bitrate=1966.1kbits/s speed=0.111x elapsed=0:00:28.82    \nframe=  196 fps=6.7 q=63.0 size=     768KiB time=00:00:03.26 bitrate=1926.0kbits/s speed=0.111x elapsed=0:00:29.34    \nframe=  200 fps=6.7 q=63.0 size=     768KiB time=00:00:03.33 bitrate=1887.4kbits/s speed=0.111x elapsed=0:00:29.89    \nframe=  204 fps=6.7 q=63.0 size=     768KiB time=00:00:03.40 bitrate=1850.4kbits/s speed=0.112x elapsed=0:00:30.43    \nframe=  208 fps=6.7 q=63.0 size=     768KiB time=00:00:03.46 bitrate=1814.8kbits/s speed=0.112x elapsed=0:00:30.97    \nframe=  211 fps=6.7 q=63.0 size=     768KiB time=00:00:03.51 bitrate=1789.0kbits/s speed=0.112x elapsed=0:00:31.50    \nframe=  215 fps=6.7 q=63.0 size=     768KiB time=00:00:03.58 bitrate=1755.8kbits/s speed=0.112x elapsed=0:00:32.02    \nframe=  220 fps=6.8 q=63.0 size=     768KiB time=00:00:03.66 bitrate=1715.9kbits/s speed=0.113x elapsed=0:00:32.56    \nframe=  224 fps=6.8 q=63.0 size=     768KiB time=00:00:03.71 bitrate=1692.8kbits/s speed=0.112x elapsed=0:00:33.12    \nframe=  228 fps=6.8 q=63.0 size=     768KiB time=00:00:03.80 bitrate=1655.6kbits/s speed=0.113x elapsed=0:00:33.64    \nframe=  232 fps=6.8 q=63.0 size=     768KiB time=00:00:03.86 bitrate=1627.1kbits/s speed=0.113x elapsed=0:00:34.19    \nframe=  235 fps=6.8 q=63.0 size=     768KiB time=00:00:03.91 bitrate=1606.3kbits/s speed=0.113x elapsed=0:00:34.73    \nframe=  240 fps=6.8 q=63.0 size=     768KiB time=00:00:04.00 bitrate=1572.9kbits/s speed=0.113x elapsed=0:00:35.26    \nframe=  244 fps=6.8 q=63.0 size=     768KiB time=00:00:04.06 bitrate=1547.1kbits/s speed=0.114x elapsed=0:00:35.81    \nframe=  248 fps=6.8 q=63.0 size=     768KiB time=00:00:04.13 bitrate=1522.1kbits/s speed=0.114x elapsed=0:00:36.34    \nframe=  253 fps=6.9 q=63.0 size=     768KiB time=00:00:04.21 bitrate=1492.0kbits/s speed=0.114x elapsed=0:00:36.86    \nframe=  256 fps=6.8 q=63.0 size=     768KiB time=00:00:04.26 bitrate=1474.6kbits/s speed=0.114x elapsed=0:00:37.40    \nframe=  261 fps=6.9 q=63.0 size=    1280KiB time=00:00:04.35 bitrate=2410.5kbits/s speed=0.115x elapsed=0:00:37.92    \nframe=  266 fps=6.9 q=63.0 size=    1280KiB time=00:00:04.43 bitrate=2365.2kbits/s speed=0.115x elapsed=0:00:38.46    \nframe=  271 fps=6.9 q=63.0 size=    1280KiB time=00:00:04.51 bitrate=2321.6kbits/s speed=0.116x elapsed=0:00:39.00    \nframe=  275 fps=7.0 q=63.0 size=    1280KiB time=00:00:04.58 bitrate=2287.8kbits/s speed=0.116x elapsed=0:00:39.53    \nframe=  276 fps=6.9 q=63.0 size=    1280KiB time=00:00:04.60 bitrate=2279.5kbits/s speed=0.115x elapsed=0:00:40.05    \nframe=  276 fps=6.8 q=63.0 size=    1280KiB time=00:00:04.60 bitrate=2279.5kbits/s speed=0.113x elapsed=0:00:40.61    \nframe=  276 fps=6.7 q=63.0 size=    1280KiB time=00:00:04.60 bitrate=2279.5kbits/s speed=0.112x elapsed=0:00:41.12    \nframe=  276 fps=6.6 q=63.0 size=    1280KiB time=00:00:04.60 bitrate=2279.5kbits/s speed=0.11x elapsed=0:00:41.65    \nframe=  276 fps=6.5 q=63.0 size=    1280KiB time=00:00:04.60 bitrate=2279.5kbits/s speed=0.109x elapsed=0:00:42.18    \n[out#0/webm @ 0000015c770b9040] video:1604KiB audio:0KiB subtitle:0KiB other streams:0KiB global headers:0KiB muxing overhead: 0.172057%\nframe=  300 fps=7.1 q=63.0 Lsize=    1607KiB time=00:00:05.00 bitrate=2632.5kbits/s speed=0.118x elapsed=0:00:42.42    \n",
  "seconds": 42.696011543273926,
  "probe_out": {}
}